<svg xmlns="http://www.w3.org/2000/svg" xmlns:xlink="http://www.w3.org/1999/xlink" width="565" zoomAndPan="magnify" viewBox="0 0 423.75 257.250001" height="343" preserveAspectRatio="xMidYMid meet" version="1.0"><defs><g/><clipPath id="2f78b95a3f"><path d="M 75.863281 132.511719 L 346.734375 132.511719 L 346.734375 134.757812 L 75.863281 134.757812 Z M 75.863281 132.511719 " clip-rule="nonzero"/></clipPath></defs><g fill="#ffffff" fill-opacity="1"><g transform="translate(83.940085, 110.153795)"><g><path d="M 31.703125 0 L 31.703125 -21.8125 C 31.703125 -24.226562 31.769531 -26.550781 31.90625 -28.78125 C 31.15625 -26.007812 30.476562 -23.84375 29.875 -22.28125 L 21.421875 0 L 18.3125 0 L 9.75 -22.28125 L 8.453125 -26.21875 L 7.6875 -28.78125 L 7.75 -26.203125 L 7.84375 -21.8125 L 7.84375 0 L 3.90625 0 L 3.90625 -32.703125 L 9.71875 -32.703125 L 18.421875 -10.03125 C 18.734375 -9.113281 19.03125 -8.132812 19.3125 -7.09375 C 19.601562 -6.050781 19.796875 -5.296875 19.890625 -4.828125 C 20.015625 -5.441406 20.273438 -6.378906 20.671875 -7.640625 C 21.066406 -8.898438 21.332031 -9.695312 21.46875 -10.03125 L 30.015625 -32.703125 L 35.6875 -32.703125 L 35.6875 0 Z M 31.703125 0 "/></g></g></g><g fill="#ffffff" fill-opacity="1"><g transform="translate(131.611952, 110.153795)"><g><path d="M 4.390625 0 L 4.390625 -32.703125 L 8.8125 -32.703125 L 8.8125 0 Z M 4.390625 0 "/></g></g></g><g fill="#ffffff" fill-opacity="1"><g transform="translate(152.898394, 110.153795)"><g><path d="M 18.375 -29.5625 C 14.757812 -29.5625 11.945312 -28.394531 9.9375 -26.0625 C 7.925781 -23.738281 6.921875 -20.550781 6.921875 -16.5 C 6.921875 -12.488281 7.96875 -9.265625 10.0625 -6.828125 C 12.15625 -4.390625 14.988281 -3.171875 18.5625 -3.171875 C 23.144531 -3.171875 26.585938 -5.441406 28.890625 -9.984375 L 32.515625 -8.171875 C 31.171875 -5.359375 29.28125 -3.210938 26.84375 -1.734375 C 24.40625 -0.265625 21.578125 0.46875 18.359375 0.46875 C 15.066406 0.46875 12.21875 -0.210938 9.8125 -1.578125 C 7.40625 -2.953125 5.566406 -4.910156 4.296875 -7.453125 C 3.035156 -10.003906 2.40625 -13.019531 2.40625 -16.5 C 2.40625 -21.71875 3.8125 -25.800781 6.625 -28.75 C 9.445312 -31.707031 13.347656 -33.1875 18.328125 -33.1875 C 21.816406 -33.1875 24.726562 -32.503906 27.0625 -31.140625 C 29.394531 -29.785156 31.113281 -27.769531 32.21875 -25.09375 L 28.015625 -23.703125 C 27.253906 -25.597656 26.035156 -27.046875 24.359375 -28.046875 C 22.679688 -29.054688 20.6875 -29.5625 18.375 -29.5625 Z M 18.375 -29.5625 "/></g></g></g><g fill="#ffffff" fill-opacity="1"><g transform="translate(195.30246, 110.153795)"><g><path d="M 26.015625 0 L 26.015625 -15.15625 L 8.328125 -15.15625 L 8.328125 0 L 3.90625 0 L 3.90625 -32.703125 L 8.328125 -32.703125 L 8.328125 -18.875 L 26.015625 -18.875 L 26.015625 -32.703125 L 30.453125 -32.703125 L 30.453125 0 Z M 26.015625 0 "/></g></g></g><g fill="#ffffff" fill-opacity="1"><g transform="translate(237.706532, 110.153795)"><g><path d="M 27.078125 0 L 23.34375 -9.5625 L 8.453125 -9.5625 L 4.6875 0 L 0.09375 0 L 13.4375 -32.703125 L 18.46875 -32.703125 L 31.609375 0 Z M 15.890625 -29.359375 L 15.6875 -28.703125 C 15.300781 -27.421875 14.726562 -25.773438 13.96875 -23.765625 L 9.796875 -13.015625 L 22.03125 -13.015625 L 17.828125 -23.8125 C 17.390625 -24.875 16.957031 -26.082031 16.53125 -27.4375 Z M 15.890625 -29.359375 "/></g></g></g><g fill="#ffffff" fill-opacity="1"><g transform="translate(277.488299, 110.153795)"><g><path d="M 3.90625 0 L 3.90625 -32.703125 L 28.703125 -32.703125 L 28.703125 -29.078125 L 8.328125 -29.078125 L 8.328125 -18.59375 L 27.3125 -18.59375 L 27.3125 -15.015625 L 8.328125 -15.015625 L 8.328125 -3.625 L 29.65625 -3.625 L 29.65625 0 Z M 19.1875 -35.515625 L 19.1875 -39.78125 L 22.96875 -39.78125 L 22.96875 -35.515625 Z M 10.046875 -35.515625 L 10.046875 -39.78125 L 13.875 -39.78125 L 13.875 -35.515625 Z M 10.046875 -35.515625 "/></g></g></g><g fill="#ffffff" fill-opacity="1"><g transform="translate(317.270055, 110.153795)"><g><path d="M 3.90625 0 L 3.90625 -32.703125 L 8.328125 -32.703125 L 8.328125 -3.625 L 24.859375 -3.625 L 24.859375 0 Z M 3.90625 0 "/></g></g></g><g fill="#ffffff" fill-opacity="1"><g transform="translate(162.106367, 176.999961)"><g><path d="M 11.359375 -3.140625 L 4.578125 -3.140625 L 3.28125 0 L -0.1875 0 L 6.328125 -14.625 L 9.671875 -14.625 L 16.21875 0 L 12.65625 0 Z M 10.296875 -5.703125 L 7.984375 -11.296875 L 5.65625 -5.703125 Z M 10.296875 -5.703125 "/></g></g></g><g fill="#ffffff" fill-opacity="1"><g transform="translate(183.323571, 176.999961)"><g><path d="M 8.234375 0.25 C 6.140625 0.25 4.507812 -0.328125 3.34375 -1.484375 C 2.1875 -2.640625 1.609375 -4.289062 1.609375 -6.4375 L 1.609375 -14.625 L 5 -14.625 L 5 -6.5625 C 5 -3.9375 6.082031 -2.625 8.25 -2.625 C 9.3125 -2.625 10.117188 -2.941406 10.671875 -3.578125 C 11.234375 -4.210938 11.515625 -5.207031 11.515625 -6.5625 L 11.515625 -14.625 L 14.859375 -14.625 L 14.859375 -6.4375 C 14.859375 -4.289062 14.273438 -2.640625 13.109375 -1.484375 C 11.941406 -0.328125 10.316406 0.25 8.234375 0.25 Z M 8.234375 0.25 "/></g></g></g><g fill="#ffffff" fill-opacity="1"><g transform="translate(205.000161, 176.999961)"><g><path d="M 11.609375 -7.546875 L 14.703125 -7.546875 L 14.703125 -1.609375 C 13.910156 -1.003906 12.988281 -0.539062 11.9375 -0.21875 C 10.894531 0.09375 9.847656 0.25 8.796875 0.25 C 7.273438 0.25 5.910156 -0.0703125 4.703125 -0.71875 C 3.492188 -1.363281 2.539062 -2.257812 1.84375 -3.40625 C 1.15625 -4.5625 0.8125 -5.863281 0.8125 -7.3125 C 0.8125 -8.757812 1.15625 -10.054688 1.84375 -11.203125 C 2.539062 -12.359375 3.5 -13.257812 4.71875 -13.90625 C 5.945312 -14.550781 7.328125 -14.875 8.859375 -14.875 C 10.140625 -14.875 11.300781 -14.65625 12.34375 -14.21875 C 13.382812 -13.789062 14.265625 -13.164062 14.984375 -12.34375 L 12.8125 -10.34375 C 11.757812 -11.4375 10.5 -11.984375 9.03125 -11.984375 C 8.09375 -11.984375 7.257812 -11.789062 6.53125 -11.40625 C 5.8125 -11.019531 5.25 -10.46875 4.84375 -9.75 C 4.4375 -9.039062 4.234375 -8.226562 4.234375 -7.3125 C 4.234375 -6.40625 4.4375 -5.597656 4.84375 -4.890625 C 5.25 -4.179688 5.8125 -3.625 6.53125 -3.21875 C 7.25 -2.820312 8.066406 -2.625 8.984375 -2.625 C 9.960938 -2.625 10.835938 -2.835938 11.609375 -3.265625 Z M 11.609375 -7.546875 "/></g></g></g><g fill="#ffffff" fill-opacity="1"><g transform="translate(226.321778, 176.999961)"><g><path d="M 13.0625 -2.71875 L 13.0625 0 L 1.734375 0 L 1.734375 -14.625 L 12.78125 -14.625 L 12.78125 -11.90625 L 5.09375 -11.90625 L 5.09375 -8.734375 L 11.890625 -8.734375 L 11.890625 -6.09375 L 5.09375 -6.09375 L 5.09375 -2.71875 Z M 13.0625 -2.71875 "/></g></g></g><g fill="#ffffff" fill-opacity="1"><g transform="translate(245.555285, 176.999961)"><g><path d="M 11.046875 0 L 8.234375 -4.078125 L 5.125 -4.078125 L 5.125 0 L 1.734375 0 L 1.734375 -14.625 L 8.0625 -14.625 C 9.351562 -14.625 10.476562 -14.40625 11.4375 -13.96875 C 12.394531 -13.539062 13.128906 -12.929688 13.640625 -12.140625 C 14.160156 -11.347656 14.421875 -10.40625 14.421875 -9.3125 C 14.421875 -8.226562 14.15625 -7.289062 13.625 -6.5 C 13.101562 -5.71875 12.363281 -5.117188 11.40625 -4.703125 L 14.6875 0 Z M 10.984375 -9.3125 C 10.984375 -10.132812 10.71875 -10.765625 10.1875 -11.203125 C 9.664062 -11.640625 8.894531 -11.859375 7.875 -11.859375 L 5.125 -11.859375 L 5.125 -6.765625 L 7.875 -6.765625 C 8.894531 -6.765625 9.664062 -6.988281 10.1875 -7.4375 C 10.71875 -7.882812 10.984375 -8.507812 10.984375 -9.3125 Z M 10.984375 -9.3125 "/></g></g></g><g clip-path="url(#2f78b95a3f)"><path fill="#ffffff" d="M 75.863281 132.511719 L 346.734375 132.511719 L 346.734375 134.757812 L 75.863281 134.757812 Z M 75.863281 132.511719 " fill-opacity="1" fill-rule="nonzero"/></g></svg>